<svg id="svg" xmlns="http://www.w3.org/2000/svg" xmlns:xlink="http://www.w3.org/1999/xlink" width="200" height="33.59375" viewBox="0, 0, 400,67.1875"><g id="svgg"><path id="path0" d="M359.844 0.479 C 347.610 2.740,338.220 10.484,334.472 21.406 C 330.674 32.471,332.507 45.850,338.987 54.375 C 350.527 69.557,374.773 71.695,389.599 58.837 C 401.266 48.720,403.596 27.606,394.536 14.102 C 387.563 3.710,373.099 -1.970,359.844 0.479 M372.344 8.911 C 384.023 12.068,391.482 23.797,390.007 36.682 C 386.567 66.717,346.430 66.762,342.779 36.735 C 340.605 18.860,355.900 4.466,372.344 8.911 M62.262 9.388 C 50.457 11.508,43.757 21.622,44.467 36.250 C 45.190 51.140,53.076 59.489,66.406 59.478 C 76.739 59.470,83.553 54.529,86.527 44.889 C 87.533 41.625,87.906 41.875,82.031 41.875 C 78.936 41.875,76.875 41.995,76.875 42.176 C 76.875 48.946,66.491 53.041,60.406 48.671 C 53.723 43.872,53.072 27.286,59.326 21.147 C 64.864 15.711,74.199 17.597,76.460 24.609 L 76.989 26.250 82.088 26.250 L 87.188 26.250 87.188 25.369 C 87.188 15.539,74.240 7.237,62.262 9.388 M155.156 9.394 C 139.879 11.919,131.967 28.748,138.112 45.650 C 145.224 65.214,175.641 63.913,181.213 43.807 C 186.944 23.125,174.168 6.252,155.156 9.394 M16.709 10.703 C 15.355 14.326,0.000 57.652,0.000 57.849 C 0.000 58.001,2.426 58.125,5.391 58.125 L 10.782 58.125 13.226 50.547 C 14.571 46.379,17.230 38.188,19.135 32.344 L 22.599 21.719 25.230 29.844 C 26.677 34.313,29.333 42.504,31.132 48.047 L 34.404 58.125 40.048 58.125 C 45.296 58.125,45.677 58.087,45.478 57.578 C 45.360 57.277,41.629 46.766,37.186 34.219 C 32.744 21.672,29.013 11.160,28.896 10.859 C 28.622 10.157,16.969 10.007,16.709 10.703 M189.063 34.375 L 189.063 58.438 194.177 58.438 L 199.291 58.437 208.942 41.539 L 218.594 24.641 218.675 41.539 L 218.755 58.438 223.440 58.438 L 228.125 58.438 228.125 34.368 L 228.125 10.298 222.745 10.383 L 217.365 10.469 208.136 26.622 L 198.906 42.776 198.825 26.544 L 198.744 10.313 193.903 10.313 L 189.063 10.313 189.063 34.375 M232.813 10.468 C 232.813 10.553,236.539 17.310,241.094 25.483 L 249.375 40.344 249.375 49.391 L 249.375 58.438 254.531 58.438 L 259.688 58.438 259.688 49.406 L 259.688 40.375 267.656 25.490 C 272.039 17.304,275.625 10.537,275.625 10.452 C 275.625 10.368,273.006 10.337,269.805 10.384 L 263.984 10.469 259.519 20.156 C 257.063 25.484,254.936 30.015,254.792 30.224 C 254.624 30.468,252.816 26.983,249.725 20.458 L 244.918 10.313 238.865 10.313 C 235.536 10.313,232.813 10.382,232.813 10.468 M280.313 34.375 L 280.313 58.438 284.998 58.438 L 289.683 58.438 289.763 38.935 L 289.844 19.433 294.077 38.857 L 298.310 58.281 303.308 58.367 L 308.307 58.452 312.669 39.072 L 317.031 19.692 317.112 39.065 L 317.192 58.437 322.034 58.438 L 326.875 58.438 326.875 34.369 L 326.875 10.301 319.475 10.385 L 312.075 10.469 307.850 28.994 L 303.625 47.519 299.523 29.775 C 297.267 20.016,295.324 11.645,295.205 11.172 L 294.988 10.313 287.650 10.313 L 280.313 10.313 280.313 34.375 M92.188 34.531 L 92.188 58.438 97.344 58.438 L 102.500 58.438 102.500 49.063 L 102.500 39.688 108.422 39.688 C 119.520 39.688,119.921 40.025,120.323 49.688 C 120.455 52.867,120.734 56.137,120.944 56.953 L 121.324 58.438 126.912 58.438 C 133.185 58.438,133.617 58.231,131.646 56.174 C 130.795 55.286,130.791 55.257,130.567 49.309 C 130.213 39.887,129.071 36.974,125.258 35.764 C 124.734 35.598,124.827 35.478,125.883 34.955 C 134.083 30.898,133.548 16.675,125.033 12.360 C 121.743 10.694,120.993 10.625,106.028 10.625 L 92.188 10.625 92.188 34.531 M352.813 33.594 L 352.813 51.875 356.875 51.875 L 360.938 51.875 360.938 44.203 L 360.938 36.531 362.685 36.625 L 364.432 36.719 368.544 44.290 L 372.656 51.862 377.422 51.868 C 380.043 51.872,382.188 51.819,382.188 51.751 C 382.188 51.682,380.148 48.145,377.656 43.890 C 375.164 39.635,373.125 36.128,373.125 36.095 C 373.125 36.063,373.897 35.864,374.841 35.653 C 379.347 34.645,381.406 31.688,381.406 26.228 C 381.406 17.440,377.326 15.321,360.391 15.315 L 352.813 15.313 352.813 33.594 M163.304 18.419 C 170.030 20.783,173.479 29.123,171.771 38.892 C 169.036 54.534,150.221 55.090,147.056 39.623 C 144.199 25.665,152.627 14.667,163.304 18.419 M118.281 19.583 C 121.267 21.167,122.432 24.795,120.975 27.969 C 119.630 30.896,118.393 31.250,109.492 31.250 L 102.500 31.250 102.500 24.971 L 102.500 18.692 109.766 18.806 C 116.444 18.911,117.132 18.973,118.281 19.583 M370.040 22.193 C 371.997 22.737,372.813 23.849,372.813 25.975 C 372.813 29.455,371.108 30.292,363.984 30.306 L 360.938 30.313 360.938 26.094 L 360.938 21.875 364.922 21.877 C 367.113 21.878,369.416 22.020,370.040 22.193 " stroke="none" fill="#ffffff" fill-rule="evenodd"></path></g></svg>